<svg width="512" height="512" viewBox="0 0 512 512" fill="none" xmlns="http://www.w3.org/2000/svg">
<rect x="248" y="76" width="15" height="400" fill="#C5BCBC"/>
<path d="M248 476L156 436H56L56 36H156.5L248 76L248 476Z" fill="url(#paint0_linear)"/>
<path d="M263 76L356 36H455V436H356.5L263 476V76Z" fill="url(#paint1_linear)"/>
<path d="M56 112H156L248 152H255.5H263L356 112H455V192H356L263 232H255.5H248L156 192H56V112Z" fill="url(#paint2_linear)"/>
<path d="M104.88 177H93.36V158.76H77.36V177H65.84V132.2H77.36V149.8H93.36V132.2H104.88V177Z" fill="black"/>
<path d="M148.11 177H112.59V132.2H148.11V141.16H124.11V149.8H142.99V158.76H124.11V168.04H148.11V177Z" fill="black"/>
<path d="M163.114 140H183.962C187.437 140 189.952 141.022 191.508 143.067C193.096 145.069 193.89 148.306 193.89 152.778V158.528C193.89 162.063 193.427 164.81 192.5 166.769C191.607 168.729 190.167 170.028 188.182 170.667L196.5 192.722H186.82L178.998 171.306H172.049V184.722H163.114V140ZM184.955 152.778C184.955 150.222 183.962 148.944 181.977 148.944H172.049V162.361H181.977C183.962 162.361 184.955 161.083 184.955 158.528V152.778Z" fill="black"/>
<path d="M227.565 172.278C227.565 169.722 226.572 168.444 224.586 168.444H216.148C214.162 168.444 213.169 169.722 213.169 172.278V192.722C213.169 195.278 214.162 196.556 216.148 196.556H224.586C226.572 196.556 227.565 195.278 227.565 192.722V172.278ZM236.5 192.722C236.5 197.194 235.706 200.453 234.117 202.497C232.562 204.499 230.047 205.5 226.572 205.5H214.162C210.687 205.5 208.156 204.499 206.567 202.497C205.012 200.453 204.234 197.194 204.234 192.722V172.278C204.234 167.806 205.012 164.568 206.567 162.567C208.156 160.522 210.687 159.5 214.162 159.5H226.572C230.047 159.5 232.562 160.522 234.117 162.567C235.706 164.568 236.5 167.806 236.5 172.278V192.722Z" fill="black"/>
<path d="M388.6 175H377.08V139.16H363.64V130.2H402.04V139.16H388.6V175Z" fill="white"/>
<path d="M442.048 175H406.528V130.2H442.048V139.16H418.048V147.8H436.928V156.76H418.048V166.04H442.048V175Z" fill="white"/>
<path d="M308.628 206.5H298.154L284.923 179.667V206.5H275V161.778H285.474L298.705 188.611V161.778H308.628V206.5Z" fill="white"/>
<path d="M341.91 152.778C341.91 150.222 340.808 148.944 338.602 148.944H329.231C327.026 148.944 325.923 150.222 325.923 152.778V173.222C325.923 175.778 327.026 177.056 329.231 177.056H338.602C340.808 177.056 341.91 175.778 341.91 173.222V152.778ZM351.833 173.222C351.833 177.694 350.951 180.953 349.187 182.997C347.46 184.999 344.667 186 340.808 186H327.026C323.167 186 320.355 184.999 318.591 182.997C316.864 180.953 316 177.694 316 173.222V152.778C316 148.306 316.864 145.069 318.591 143.067C320.355 141.022 323.167 140 327.026 140H340.808C344.667 140 347.46 141.022 349.187 143.067C350.951 145.069 351.833 148.306 351.833 152.778V173.222Z" fill="white"/>
<defs>
<linearGradient id="paint0_linear" x1="248" y1="286.5" x2="56" y2="285.5" gradientUnits="userSpaceOnUse">
<stop stop-color="#9C9191"/>
<stop offset="0.476571" stop-color="#DCA7A7" stop-opacity="0.964556"/>
<stop offset="0.491806" stop-color="#9C9191" stop-opacity="0.962624"/>
<stop offset="0.9995" stop-color="#9C9191" stop-opacity="0.928275"/>
<stop offset="0.9996" stop-color="#9C9191" stop-opacity="0.853555"/>
<stop offset="0.9997" stop-color="#9C9191" stop-opacity="0.84806"/>
<stop offset="0.9998" stop-color="#9C9191" stop-opacity="0.739583"/>
<stop offset="0.9999" stop-color="#9C9191" stop-opacity="0.927083"/>
<stop offset="0.9999" stop-color="#9C9191" stop-opacity="0.908967"/>
<stop offset="1" stop-color="#9C9191" stop-opacity="0"/>
</linearGradient>
<linearGradient id="paint1_linear" x1="455" y1="435.5" x2="263" y2="435.5" gradientUnits="userSpaceOnUse">
<stop stop-color="#939393"/>
<stop offset="0.499429" stop-color="#959292"/>
<stop offset="0.513067" stop-color="#DBA8A8"/>
<stop offset="0.998658" stop-color="#B09A9A" stop-opacity="0.877477"/>
<stop offset="0.9998" stop-color="#CACACA" stop-opacity="0.803447"/>
<stop offset="0.9999" stop-color="#CACACA" stop-opacity="0.401042"/>
<stop offset="1" stop-color="#CACACA" stop-opacity="0"/>
</linearGradient>
<linearGradient id="paint2_linear" x1="455" y1="112" x2="56" y2="112" gradientUnits="userSpaceOnUse">
<stop stop-color="#4A1E1E"/>
<stop offset="0.238222" stop-color="#4A1E1E"/>
<stop offset="0.244176" stop-color="#622929"/>
<stop offset="0.249981" stop-color="#532121"/>
<stop offset="0.479517" stop-color="#5C2424"/>
<stop offset="0.483803" stop-color="#D71F1F"/>
<stop offset="0.519517" stop-color="#D11F1F"/>
<stop offset="0.523327" stop-color="#E55454"/>
<stop offset="0.747043" stop-color="#E74E4E" stop-opacity="0.952956"/>
<stop offset="0.751615" stop-color="#BF3737" stop-opacity="0.950889"/>
<stop offset="0.9996" stop-color="#EA4848" stop-opacity="0.901093"/>
<stop offset="0.9997" stop-color="#592424" stop-opacity="0.917578"/>
<stop offset="0.9998" stop-color="#6F2C2C" stop-opacity="0.789041"/>
<stop offset="0.9999" stop-color="#AC4444" stop-opacity="0.4375"/>
<stop offset="1" stop-color="#F86262" stop-opacity="0"/>
<stop offset="1" stop-color="#9A3333" stop-opacity="0.950527"/>
</linearGradient>
</defs>
</svg>
