<svg width="512" height="512" viewBox="0 0 512 512" fill="none" xmlns="http://www.w3.org/2000/svg">
<rect x="371" y="116" width="50" height="350" fill="#373831"/>
<path d="M171.735 306L180 266L373 266L373 306L171.735 306Z" fill="#373831"/>
<path d="M161 116H211L142 466H92L161 116Z" fill="#373831"/>
<rect x="161" y="100.717" width="130" height="15" fill="#168301"/>
<rect x="291" y="100.717" width="130" height="15" fill="#166931"/>
<path d="M171 64.7167C232.5 62.7167 287 59.2168 291 72.7167V100.717H171V64.7167Z" fill="#DED0C3"/>
<path d="M291 72.7169C294.5 55.7168 363.5 61.2168 411 64.7169V100.717H291V72.7169Z" fill="#DBC5AE"/>
<path d="M285.271 251.148C269.516 251.148 256.697 245.992 246.814 235.68C236.932 225.296 231.99 211.438 231.99 194.107V190.455C231.99 178.925 234.174 168.648 238.543 159.625C242.983 150.53 249.142 143.44 257.02 138.355C264.969 133.199 273.562 130.621 282.801 130.621C297.911 130.621 309.656 135.598 318.035 145.553C326.414 155.507 330.604 169.758 330.604 188.307V196.578H251.863C252.15 208.036 255.48 217.311 261.854 224.4C268.299 231.419 276.463 234.928 286.346 234.928C293.364 234.928 299.308 233.495 304.178 230.631C309.048 227.766 313.309 223.971 316.961 219.244L329.1 228.697C319.36 243.665 304.751 251.148 285.271 251.148ZM282.801 146.949C274.78 146.949 268.048 149.885 262.605 155.758C257.163 161.559 253.797 169.723 252.508 180.25H310.73V178.746C310.158 168.648 307.436 160.842 302.566 155.328C297.697 149.742 291.108 146.949 282.801 146.949Z" fill="#830026"/>
</svg>
