<svg width="1461" height="368" viewBox="0 0 1461 368" fill="none" xmlns="http://www.w3.org/2000/svg">
<rect x="696.768" y="51" width="732" height="277" rx="10" fill="#830026"/>
<path d="M229.68 286H149.904V279.088L174.96 276.496V190.96H72.72V276.496L97.776 279.088V286H18V279.088L43.056 276.496V103.12L18 100.528V93.616H97.776V100.528L72.72 103.12V180.592H174.96V103.12L149.904 100.528V93.616H229.68V100.528L204.624 103.12V276.496L229.68 279.088V286Z" fill="black"/>
<path d="M314.624 289.168C294.848 289.168 278.912 282.448 266.816 269.008C254.72 255.568 248.672 237.808 248.672 215.728C248.672 193.648 255.008 175.888 267.68 162.448C280.544 149.008 296.672 142.288 316.064 142.288C335.456 142.288 349.952 146.704 359.552 155.536C369.152 164.176 373.952 176.272 373.952 191.824C373.952 196.432 373.568 201.04 372.8 205.648H279.776V215.728C279.776 237.232 282.848 253.552 288.992 264.688C295.136 275.632 305.216 281.104 319.232 281.104C339.008 281.104 354.272 272.464 365.024 255.184C369.248 256.528 371.36 258.544 371.36 261.232C371.36 266.032 366.944 271.6 358.112 277.936C353.888 281.008 347.936 283.696 340.256 286C332.576 288.112 324.032 289.168 314.624 289.168ZM346.592 185.776C346.592 176.944 344.768 169.36 341.12 163.024C336.128 154.576 328.064 150.352 316.928 150.352C296.192 150.352 284.096 165.328 280.64 195.28H346.016C346.4 192.016 346.592 188.848 346.592 185.776Z" fill="black"/>
<path d="M488.106 142C493.098 142 497.034 143.248 499.914 145.744C502.794 148.048 504.234 151.312 504.234 155.536C504.234 162.832 501.45 167.632 495.882 169.936C492.81 167.44 487.242 166.192 479.178 166.192C471.114 166.192 463.338 168.88 455.85 174.256C448.554 179.44 444.906 185.392 444.906 192.112V277.648L470.826 279.088V286H397.674V279.088L416.682 277.936V154.96L393.93 153.808V147.184L444.906 144.016L443.178 179.44H444.33C447.594 169.072 453.546 160.24 462.186 152.944C471.018 145.648 479.658 142 488.106 142Z" fill="black"/>
<path d="M661.815 215.728C661.815 237.04 655.383 254.608 642.519 268.432C629.655 282.256 612.087 289.168 589.815 289.168C567.735 289.168 550.263 282.256 537.399 268.432C524.535 254.608 518.103 237.04 518.103 215.728C518.103 194.416 524.535 176.848 537.399 163.024C550.263 149.2 567.735 142.288 589.815 142.288C612.087 142.288 629.655 149.2 642.519 163.024C655.383 176.848 661.815 194.416 661.815 215.728ZM549.495 215.728C549.495 260.08 562.935 282.256 589.815 282.256C616.887 282.256 630.423 260.08 630.423 215.728C630.423 194.224 627.351 177.808 621.207 166.48C615.063 155.152 604.695 149.488 590.103 149.488C575.511 149.488 565.047 155.152 558.711 166.48C552.567 177.808 549.495 194.224 549.495 215.728Z" fill="black"/>
<path d="M886.864 93.616H945.04V100.528L924.88 107.44V286H905.296L777.136 128.176V271.888L801.328 279.088V286H743.728V279.088L764.752 271.888V103.12L739.696 100.528V93.616H793.84L909.04 237.04V107.152L886.864 100.528V93.616Z" fill="white"/>
<path d="M1092.96 268.432C1079.52 282.256 1061.18 289.168 1037.95 289.168C1014.72 289.168 996.381 282.256 982.941 268.432C969.501 254.608 962.781 237.04 962.781 215.728C962.781 194.416 969.501 176.848 982.941 163.024C996.381 149.2 1014.72 142.288 1037.95 142.288C1061.18 142.288 1079.52 149.2 1092.96 163.024C1106.4 176.848 1113.12 194.416 1113.12 215.728C1113.12 237.04 1106.4 254.608 1092.96 268.432ZM1002.81 215.728C1002.81 260.08 1014.53 282.256 1037.95 282.256C1061.37 282.256 1073.09 260.08 1073.09 215.728C1073.09 194.032 1070.49 177.616 1065.31 166.48C1060.13 155.152 1051.01 149.488 1037.95 149.488C1024.89 149.488 1015.77 155.152 1010.59 166.48C1005.41 177.616 1002.81 194.032 1002.81 215.728Z" fill="white"/>
<path d="M1185.87 289.168C1167.44 289.168 1155.72 282.736 1150.73 269.872C1148.62 264.304 1147.56 257.296 1147.56 248.848C1147.56 216.976 1148.04 185.008 1149 152.944H1129.42V145.456H1149.29L1149.58 103.12H1186.44L1185.58 145.456H1225.9V152.944H1185.58L1185 176.272C1184.43 207.376 1184.14 235.888 1184.14 261.808C1184.14 269.296 1184.91 274.384 1186.44 277.072C1188.17 279.76 1191.15 281.104 1195.37 281.104C1199.79 281.104 1204.59 278.128 1209.77 272.176C1215.15 266.032 1218.99 258.736 1221.29 250.288C1225.13 250.288 1227.05 251.632 1227.05 254.32C1227.05 254.896 1226.96 255.568 1226.76 256.336C1223.69 266.32 1218.41 274.288 1210.92 280.24C1203.63 286.192 1195.28 289.168 1185.87 289.168Z" fill="white"/>
<path d="M1338.54 185.488C1338.54 162.064 1330.38 150.352 1314.06 150.352C1296.97 150.352 1286.6 165.328 1282.95 195.28H1337.96C1338.34 191.44 1338.54 188.176 1338.54 185.488ZM1311.46 289.168C1290.92 289.168 1274.22 282.448 1261.35 269.008C1248.68 255.568 1242.34 237.808 1242.34 215.728C1242.34 193.648 1248.97 175.888 1262.22 162.448C1275.66 149.008 1292.65 142.288 1313.19 142.288C1333.74 142.288 1349.1 146.704 1359.27 155.536C1369.45 164.176 1374.54 176.272 1374.54 191.824C1374.54 196.24 1374.15 200.848 1373.38 205.648H1282.09V215.728C1282.09 237.232 1284.78 253.552 1290.15 264.688C1295.53 275.632 1303.59 281.104 1314.34 281.104C1325.29 281.104 1335.18 278.896 1344.01 274.48C1353.03 269.872 1360.04 263.44 1365.03 255.184C1369.26 256.528 1371.37 258.544 1371.37 261.232C1371.37 266.032 1366.86 271.6 1357.83 277.936C1353.42 281.008 1347.08 283.696 1338.82 286C1330.76 288.112 1321.64 289.168 1311.46 289.168Z" fill="white"/>
</svg>
